<svg id="svg" version="1.1" xmlns="http://www.w3.org/2000/svg" xmlns:xlink="http://www.w3.org/1999/xlink" width="400" height="400" viewBox="0, 0, 400,400"><g id="svgg"><path id="path0" d="M237.200 60.014 C 234.890 60.189,232.370 60.516,231.600 60.739 C 230.830 60.963,229.750 61.266,229.200 61.413 C 228.650 61.560,227.437 62.022,226.504 62.440 C 225.572 62.858,224.644 63.200,224.443 63.200 C 223.920 63.200,219.461 65.760,217.869 66.974 C 217.130 67.538,216.316 68.000,216.062 68.000 C 215.808 68.000,215.600 68.156,215.600 68.347 C 215.600 68.538,214.835 69.198,213.900 69.814 C 211.565 71.354,202.796 80.189,201.147 82.665 C 200.406 83.777,198.927 86.017,197.859 87.643 C 196.792 89.269,195.598 91.059,195.207 91.620 C 194.089 93.221,192.358 96.759,191.302 99.600 C 190.771 101.030,190.063 102.920,189.729 103.800 C 185.939 113.784,185.179 128.492,188.002 137.200 C 188.394 138.410,188.831 139.910,188.973 140.533 C 189.116 141.157,189.645 142.327,190.149 143.133 C 190.653 143.940,191.264 145.176,191.506 145.881 C 192.486 148.739,198.679 155.200,200.438 155.200 C 200.831 155.200,201.253 155.361,201.374 155.559 C 203.338 158.735,217.303 160.493,224.575 158.479 C 226.322 157.996,227.987 157.600,228.275 157.600 C 229.163 157.600,238.882 152.760,241.000 151.263 C 246.192 147.592,251.181 142.809,255.252 137.600 C 259.674 131.941,260.194 131.201,261.648 128.503 C 262.449 127.017,263.847 124.468,264.754 122.841 C 265.662 121.213,266.651 119.053,266.953 118.041 C 267.255 117.028,267.804 115.480,268.175 114.600 C 271.671 106.290,272.743 90.039,270.244 83.250 C 269.890 82.287,269.600 81.250,269.600 80.945 C 269.600 80.356,268.421 77.554,267.161 75.146 C 266.743 74.346,266.400 73.395,266.400 73.033 C 266.400 72.671,266.130 72.271,265.800 72.145 C 265.470 72.018,265.198 71.709,265.194 71.457 C 265.187 70.810,261.058 66.031,259.718 65.118 C 253.146 60.642,247.072 59.265,237.200 60.014 M132.200 77.599 C 127.792 78.762,124.169 80.504,120.400 83.273 C 119.850 83.677,118.756 84.438,117.970 84.965 C 115.999 86.284,108.457 93.803,106.901 96.000 C 100.545 104.975,98.145 110.030,95.126 120.800 C 93.148 127.858,93.123 142.899,95.081 148.800 C 95.409 149.790,95.926 151.539,96.230 152.688 C 96.915 155.273,99.427 160.614,100.672 162.131 C 101.182 162.753,101.600 163.442,101.600 163.662 C 101.600 164.458,105.825 168.898,107.295 169.649 C 108.123 170.071,108.800 170.550,108.800 170.714 C 108.800 171.069,111.161 172.130,115.000 173.500 C 127.479 177.952,145.023 170.293,155.253 155.925 C 155.768 155.202,156.428 154.338,156.719 154.005 C 157.781 152.794,159.296 150.280,161.956 145.318 C 168.675 132.782,170.470 113.934,166.309 99.600 C 165.958 98.390,165.477 96.666,165.240 95.769 C 163.833 90.439,155.952 82.106,149.701 79.338 C 145.398 77.432,136.268 76.525,132.200 77.599 M300.200 130.002 C 280.088 133.012,256.577 149.559,249.169 165.918 C 245.004 175.116,244.599 176.917,244.604 186.200 C 244.609 195.284,245.389 198.303,249.323 204.453 C 256.027 214.932,273.780 219.381,292.800 215.347 C 293.350 215.230,294.250 214.990,294.800 214.814 C 295.350 214.637,296.610 214.264,297.600 213.984 C 299.212 213.528,301.253 212.682,305.600 210.668 C 309.454 208.883,313.337 206.486,317.511 203.315 C 319.332 201.932,320.907 200.800,321.010 200.800 C 321.861 200.800,331.652 189.963,334.118 186.291 C 334.737 185.369,335.498 184.333,335.810 183.989 C 336.878 182.809,340.000 176.746,340.000 175.852 C 340.000 175.530,340.341 174.471,340.758 173.499 C 343.727 166.572,343.724 154.749,340.751 147.800 C 340.280 146.700,339.701 145.350,339.463 144.800 C 334.808 134.047,317.289 127.444,300.200 130.002 M141.200 183.854 C 138.941 184.072,131.713 185.079,128.800 185.581 C 120.133 187.075,115.182 188.366,100.600 192.935 C 94.243 194.926,83.447 200.036,76.225 204.471 C 73.791 205.966,71.084 207.576,70.208 208.049 C 66.868 209.855,61.208 215.217,60.338 217.400 C 60.075 218.060,59.554 219.050,59.179 219.600 C 54.587 226.335,53.887 238.804,57.654 246.776 C 61.235 254.355,69.652 262.000,80.200 267.254 C 81.740 268.021,84.620 269.478,86.600 270.491 C 88.580 271.505,91.554 272.870,93.209 273.526 C 94.863 274.182,96.843 275.078,97.609 275.516 C 98.374 275.954,99.675 276.526,100.500 276.787 C 101.325 277.048,102.000 277.409,102.000 277.588 C 102.000 277.767,102.468 278.031,103.039 278.174 C 107.308 279.246,127.200 294.235,127.200 296.381 C 127.200 296.580,127.483 297.026,127.829 297.372 C 129.176 298.719,133.025 304.786,134.878 308.484 C 135.949 310.621,137.000 312.476,137.213 312.608 C 137.426 312.740,137.600 313.207,137.600 313.647 C 137.600 314.088,138.291 315.922,139.136 317.724 C 139.981 319.526,140.910 321.630,141.200 322.400 C 141.491 323.170,141.879 323.971,142.064 324.180 C 142.249 324.389,142.400 324.816,142.400 325.130 C 142.400 326.328,147.669 337.468,150.227 341.680 C 152.182 344.898,157.510 350.387,160.682 352.451 L 163.370 354.200 160.985 354.438 C 159.673 354.569,158.035 354.804,157.345 354.960 L 156.090 355.244 155.935 352.179 C 155.715 347.818,155.159 347.407,150.000 347.787 C 147.910 347.941,143.227 348.050,139.594 348.029 C 130.626 347.977,128.276 349.215,127.390 354.457 C 127.254 355.266,126.795 356.243,126.371 356.626 C 125.239 357.650,125.259 362.658,126.400 364.109 C 127.159 365.075,127.200 365.732,127.200 377.087 C 127.200 386.776,127.308 389.195,127.767 389.824 C 128.565 390.916,138.669 391.240,140.222 390.222 L 141.200 389.582 141.200 377.191 C 141.200 369.197,141.342 364.800,141.600 364.800 C 141.858 364.800,142.000 369.133,142.000 377.000 C 142.000 392.085,141.351 390.800,148.971 390.800 C 154.771 390.800,155.329 390.617,155.849 388.547 L 156.099 387.549 157.114 388.975 C 157.671 389.759,158.324 390.401,158.564 390.402 C 158.804 390.404,159.540 390.705,160.200 391.071 C 161.717 391.912,166.005 392.026,166.941 391.249 C 167.452 390.825,169.067 390.714,173.954 390.769 C 178.991 390.824,180.422 390.721,180.875 390.268 C 181.361 389.782,181.557 389.779,182.199 390.249 C 183.623 391.290,193.428 391.012,194.518 389.900 L 195.400 389.000 196.286 389.900 C 197.114 390.742,197.507 390.800,202.386 390.800 C 209.823 390.800,209.200 392.061,209.200 377.000 C 209.200 366.420,209.280 364.800,209.800 364.800 C 210.323 364.800,210.387 366.379,210.300 377.034 L 210.200 389.268 211.144 390.034 C 211.966 390.701,212.760 390.800,217.262 390.800 C 223.868 390.800,224.523 390.376,224.178 386.322 L 223.963 383.800 224.946 385.600 C 229.152 393.298,241.780 394.158,247.582 387.143 L 248.362 386.200 248.136 387.655 C 247.730 390.269,248.739 390.800,254.111 390.800 C 257.419 390.800,258.844 390.644,259.456 390.216 C 260.180 389.709,260.390 389.707,261.045 390.203 C 262.083 390.988,271.912 391.045,272.970 390.272 C 273.845 389.632,273.543 385.731,272.407 383.000 C 272.224 382.560,271.857 381.300,271.592 380.200 C 271.326 379.100,270.770 377.198,270.355 375.973 C 269.389 373.125,269.401 371.138,270.400 368.296 C 270.840 367.044,271.200 365.593,271.200 365.072 C 271.200 364.551,271.556 363.061,271.990 361.762 C 273.885 356.098,272.875 354.800,266.577 354.800 C 262.818 354.800,262.363 354.883,261.322 355.758 L 260.184 356.717 259.069 355.758 C 257.653 354.540,250.558 354.300,249.426 355.431 C 248.344 356.513,247.971 357.541,248.241 358.692 C 248.493 359.764,248.444 359.745,246.751 358.119 C 241.782 353.350,231.760 352.972,227.603 357.397 L 226.658 358.403 225.955 357.332 C 225.336 356.388,225.321 356.163,225.826 355.441 C 227.443 353.133,226.100 348.336,223.695 347.832 C 221.224 347.314,214.907 348.223,213.219 349.340 C 211.385 350.554,211.200 350.602,211.200 349.862 C 211.200 347.814,202.676 347.176,199.086 348.954 C 197.291 349.843,196.748 349.552,197.863 348.298 C 198.615 347.454,199.727 345.790,204.081 338.988 C 205.741 336.397,211.200 323.777,211.200 322.533 C 211.200 322.235,211.544 321.228,211.965 320.296 C 213.301 317.335,213.486 316.590,215.773 305.000 C 216.294 302.360,217.087 298.760,217.536 297.000 C 217.984 295.240,218.653 291.910,219.021 289.600 C 219.390 287.290,219.847 284.500,220.037 283.400 C 221.930 272.478,221.918 245.862,220.017 238.600 C 219.787 237.720,219.229 235.380,218.778 233.400 C 218.327 231.420,217.518 228.866,216.979 227.725 C 216.441 226.583,216.000 225.453,216.000 225.213 C 216.000 224.165,211.406 215.882,209.781 214.000 C 209.306 213.450,208.367 212.190,207.694 211.200 C 206.362 209.239,201.946 204.627,199.270 202.400 C 198.345 201.630,197.132 200.595,196.576 200.100 C 196.019 199.605,195.476 199.200,195.369 199.200 C 195.263 199.200,193.281 197.938,190.966 196.396 C 186.615 193.497,183.968 192.028,181.329 191.048 C 179.620 190.413,174.234 188.192,173.000 187.613 C 171.782 187.042,164.245 185.265,160.200 184.596 C 156.588 183.998,144.569 183.529,141.200 183.854 M287.400 230.656 C 286.036 230.802,282.549 231.481,276.400 232.797 C 275.630 232.962,274.100 233.392,273.000 233.752 C 271.900 234.112,270.370 234.608,269.600 234.855 C 268.158 235.317,264.309 237.180,259.400 239.792 C 246.022 246.908,235.718 259.831,233.560 272.200 C 230.700 288.597,238.578 300.100,257.000 306.426 L 261.000 307.800 271.000 307.800 C 280.214 307.800,281.204 307.731,283.600 306.928 C 285.030 306.448,286.830 305.934,287.600 305.784 C 288.370 305.635,289.810 305.191,290.800 304.797 C 291.790 304.404,293.680 303.680,295.000 303.189 C 301.058 300.936,306.755 297.519,312.334 292.791 C 312.848 292.356,313.388 291.999,313.534 291.998 C 314.254 291.992,322.400 282.897,322.400 282.099 C 322.400 281.893,322.780 281.381,323.245 280.962 C 324.276 280.032,327.608 273.531,328.044 271.600 C 328.217 270.830,328.748 268.670,329.222 266.800 C 331.614 257.372,328.539 246.621,321.808 240.879 C 317.023 236.797,307.115 232.022,303.372 231.994 C 302.947 231.991,301.873 231.735,300.984 231.425 C 299.335 230.850,290.334 230.340,287.400 230.656 M251.970 372.400 C 251.981 372.950,251.648 374.480,251.231 375.800 L 250.473 378.200 250.478 372.600 L 250.482 367.000 251.217 369.200 C 251.621 370.410,251.960 371.850,251.970 372.400 " stroke="none" fill="#040404" fill-rule="evenodd"></path><path id="path1" d="" stroke="none" fill="#080404" fill-rule="evenodd"></path><path id="path2" d="" stroke="none" fill="#080404" fill-rule="evenodd"></path><path id="path3" d="" stroke="none" fill="#080404" fill-rule="evenodd"></path><path id="path4" d="" stroke="none" fill="#080404" fill-rule="evenodd"></path><path id="path5" d="" stroke="none" fill="#080404" fill-rule="evenodd"></path><path id="path6" d="" stroke="none" fill="#080404" fill-rule="evenodd"></path><path id="path7" d="" stroke="none" fill="#080404" fill-rule="evenodd"></path><path id="path8" d="" stroke="none" fill="#080404" fill-rule="evenodd"></path></g></svg>